# xmcd
#
# Track frame offsets:
#	182
#	15040
#	26027
#	36397
#	51600
#	64157
#	77377
#	85265
#	102025
#	116927
#
# Disc length: 1681 seconds
#
# Revision: 1
# Processed by: cddbd v1.4b42PL0 Copyright (c) Steve Scherf et al.
# Submitted via: audiograbber 1.80
#
DISCID=79068f0a
DTITLE=Julie Daraîche - Tome 3
DYEAR=1900
DGENRE=
TTITLE0=Kaw Laga
TTITLE1=Qui Sait Si Tu M'aimes
TTITLE2=Salut L'ami
TTITLE3=Tous Les Chemins De Ma Vie
TTITLE4=Jusqu'au Bout Du Monde
TTITLE5=Souvenirs D'un Vieillard
TTITLE6=Comme Un Oiseau Perdu
TTITLE7=Un Oiseau Qui Vient De France
TTITLE8=La Cérémonie
TTITLE9=Le Lumberjack
EXTD=
EXTT0=
EXTT1=
EXTT2=
EXTT3=
EXTT4=
EXTT5=
EXTT6=
EXTT7=
EXTT8=
EXTT9=
PLAYORDER=
